<svg width="25" height="25" viewBox="0 0 25 25" fill="none" xmlns="http://www.w3.org/2000/svg">
<path d="M4.16666 7.2915H20.8333" stroke="white" stroke-width="2" stroke-linecap="round" stroke-linejoin="round"/>
<path d="M6.25 10.4165L8.0223 20.1642C8.20242 21.1548 9.06519 21.8748 10.072 21.8748H14.9279C15.9348 21.8748 16.7976 21.1547 16.9777 20.1642L18.75 10.4165" stroke="white" stroke-width="2" stroke-linecap="round" stroke-linejoin="round"/>
<path d="M9.375 5.20833C9.375 4.05774 10.3077 3.125 11.4583 3.125H13.5417C14.6923 3.125 15.625 4.05774 15.625 5.20833V7.29167H9.375V5.20833Z" stroke="white" stroke-width="2" stroke-linecap="round" stroke-linejoin="round"/>
<path d="M13.5 11.5C13.5 10.9477 13.0523 10.5 12.5 10.5C11.9477 10.5 11.5 10.9477 11.5 11.5H13.5ZM13.5 19V11.5H11.5V19H13.5Z" fill="white"/>
</svg>
