<svg width="800" height="800" viewBox="0 0 800 800" fill="none" xmlns="http://www.w3.org/2000/svg">
<path d="M650 210H500C497.348 210 494.804 208.946 492.929 207.071C491.054 205.196 490 202.652 490 200V50C490 47.3478 491.054 44.8043 492.929 42.9289C494.804 41.0536 497.348 40 500 40C502.652 40 505.196 41.0536 507.071 42.9289C508.946 44.8043 510 47.3478 510 50V190H650C652.652 190 655.196 191.054 657.071 192.929C658.946 194.804 660 197.348 660 200C660 202.652 658.946 205.196 657.071 207.071C655.196 208.946 652.652 210 650 210Z" fill="#09A2B3"/>
<path d="M650 309.66C647.348 309.66 644.804 308.606 642.929 306.731C641.054 304.856 640 302.312 640 299.66V204.14L495.86 60H200C189.391 60 179.217 64.2143 171.716 71.7157C164.214 79.2172 160 89.3914 160 100V296.34C160 298.992 158.946 301.536 157.071 303.411C155.196 305.286 152.652 306.34 150 306.34C147.348 306.34 144.804 305.286 142.929 303.411C141.054 301.536 140 298.992 140 296.34V100C140 84.087 146.321 68.8258 157.574 57.5736C168.826 46.3214 184.087 40 200 40H500C501.314 39.9977 502.616 40.2543 503.831 40.7554C505.045 41.2564 506.15 41.992 507.08 42.92L657.08 192.92C658.008 193.85 658.744 194.955 659.245 196.169C659.746 197.384 660.002 198.686 660 200V299.66C660 300.973 659.741 302.274 659.239 303.487C658.736 304.7 658 305.803 657.071 306.731C656.142 307.66 655.04 308.396 653.827 308.899C652.614 309.401 651.313 309.66 650 309.66Z" fill="#09A2B3"/>
<path d="M600 760H200C184.087 760 168.826 753.679 157.574 742.426C146.321 731.174 140 715.913 140 700V550C140 547.348 141.054 544.804 142.929 542.929C144.804 541.054 147.348 540 150 540C152.652 540 155.196 541.054 157.071 542.929C158.946 544.804 160 547.348 160 550V700C160 710.609 164.214 720.783 171.716 728.284C179.217 735.786 189.391 740 200 740H600C610.609 740 620.783 735.786 628.284 728.284C635.786 720.783 640 710.609 640 700V550C640 547.348 641.054 544.804 642.929 542.929C644.804 541.054 647.348 540 650 540C652.652 540 655.196 541.054 657.071 542.929C658.946 544.804 660 547.348 660 550V700C660 715.913 653.679 731.174 642.426 742.426C631.174 753.679 615.913 760 600 760Z" fill="#09A2B3"/>
<path d="M550 560H250C247.348 560 244.804 558.946 242.929 557.071C241.054 555.196 240 552.652 240 550C240 547.348 241.054 544.804 242.929 542.929C244.804 541.054 247.348 540 250 540H550C552.652 540 555.196 541.054 557.071 542.929C558.946 544.804 560 547.348 560 550C560 552.652 558.946 555.196 557.071 557.071C555.196 558.946 552.652 560 550 560Z" fill="#09A2B3"/>
<path d="M400 660H250C247.348 660 244.804 658.946 242.929 657.071C241.054 655.196 240 652.652 240 650C240 647.348 241.054 644.804 242.929 642.929C244.804 641.054 247.348 640 250 640H400C402.652 640 405.196 641.054 407.071 642.929C408.946 644.804 410 647.348 410 650C410 652.652 408.946 655.196 407.071 657.071C405.196 658.946 402.652 660 400 660Z" fill="#09A2B3"/>
<path d="M650 560H150C134.087 560 118.826 553.678 107.574 542.426C96.3214 531.174 90 515.913 90 500V346.34C90 330.427 96.3214 315.166 107.574 303.913C118.826 292.661 134.087 286.34 150 286.34H150.4L650.4 289.66C666.232 289.807 681.369 296.188 692.529 307.419C703.689 318.65 709.973 333.827 710.02 349.66V500C710.02 507.881 708.467 515.685 705.451 522.965C702.434 530.246 698.013 536.862 692.439 542.433C686.866 548.005 680.249 552.424 672.967 555.438C665.685 558.452 657.881 560.002 650 560ZM150 306.34C139.391 306.34 129.217 310.554 121.716 318.056C114.214 325.557 110 335.731 110 346.34V500C110 510.609 114.214 520.783 121.716 528.284C129.217 535.786 139.391 540 150 540H650C660.609 540 670.783 535.786 678.284 528.284C685.786 520.783 690 510.609 690 500V349.66C689.969 339.102 685.777 328.982 678.335 321.495C670.892 314.007 660.797 309.755 650.24 309.66L150.24 306.34H150Z" fill="#09A2B3"/>
<path d="M290 472H270.78V365.36H314.46C326.913 365.36 336.147 368.5 342.16 374.78C348.08 380.999 351.321 389.296 351.182 397.881C351.044 406.467 347.538 414.655 341.42 420.68C334.664 426.814 325.779 430.065 316.66 429.74H290V472ZM290 413.26H312.74C318.673 413.26 323.207 411.8 326.34 408.88C327.906 407.386 329.133 405.574 329.941 403.567C330.748 401.559 331.116 399.402 331.02 397.24C331.093 393.071 329.536 389.038 326.68 386C323.787 382.88 318.567 381.32 311.02 381.32H290V413.26Z" fill="#09A2B3"/>
<path d="M366 472V365.36H405.4C419.933 365.36 431.6 370.5 440.4 380.78C449.2 391.06 453.6 403.727 453.6 418.78C453.6 433.887 449.067 446.52 440 456.68C430.933 466.84 417.967 471.947 401.1 472H366ZM385.76 456.3H401.76C405.889 456.354 409.98 455.517 413.756 453.847C417.532 452.176 420.903 449.711 423.64 446.62C429.627 440.167 432.62 430.56 432.62 417.8C432.915 408.37 430.158 399.097 424.76 391.36C422.483 387.966 419.392 385.198 415.769 383.307C412.145 381.417 408.106 380.466 404.02 380.54H385.74L385.76 456.3Z" fill="#09A2B3"/>
<path d="M491.18 472H471.4V365.36H538.82V381.84H491.18V410.98H528.68V426.98H491.18V472Z" fill="#09A2B3"/>
</svg>
